$MeshFormat
4.1 0 8
$EndMeshFormat
$Entities
4 4 1 0
1 0 0 0 0 
2 2 0 0 0 
3 2 1 0 0 
4 0 1 0 0 
1 0 0 0 2 0 0 0 2 1 -2 
2 2 0 0 2 1 0 0 2 2 -3 
3 0 1 0 2 1 0 0 2 3 -4 
4 0 0 0 0 1 0 0 2 4 -1 
1 0 0 0 2 1 0 0 4 1 2 3 4 
$EndEntities
$Nodes
9 274 1 274
0 1 0 1
1
0 0 0
0 2 0 1
2
2 0 0
0 3 0 1
3
2 1 0
0 4 0 1
4
0 1 0
1 1 0 19
5
6
7
8
9
10
11
12
13
14
15
16
17
18
19
20
21
22
23
0.09999999999979935 0 0
0.1999999999996294 0 0
0.2999999999994072 0 0
0.3999999999991158 0 0
0.4999999999988243 0 0
0.5999999999985328 0 0
0.6999999999982414 0 0
0.7999999999979499 0 0
0.8999999999976585 0 0
0.9999999999973885 0 0
1.09999999999763 0 0
1.199999999997894 0 0
1.299999999998157 0 0
1.39999999999842 0 0
1.499999999998683 0 0
1.599999999998947 0 0
1.69999999999921 0 0
1.799999999999474 0 0
1.899999999999737 0 0
1 2 0 9
24
25
26
27
28
29
30
31
32
2 0.09999999999981468 0
2 0.1999999999995579 0
2 0.2999999999992664 0
2 0.399999999998975 0
2 0.4999999999986943 0
2 0.5999999999989468 0
2 0.69999999999921 0
2 0.7999999999994734 0
2 0.8999999999997368 0
1 3 0 19
33
34
35
36
37
38
39
40
41
42
43
44
45
46
47
48
49
50
51
1.899999999999584 1 0
1.799999999999167 1 0
1.699999999999306 1 0
1.6 1 0
1.500000000000693 1 0
1.400000000001387 1 0
1.30000000000208 1 0
1.200000000002774 1 0
1.100000000003467 1 0
1.000000000004117 1 0
0.9000000000037447 1 0
0.8000000000033287 1 0
0.7000000000029127 1 0
0.6000000000024965 1 0
0.5000000000020806 1 0
0.4000000000016644 1 0
0.3000000000012482 1 0
0.200000000000832 1 0
0.100000000000416 1 0
1 4 0 9
52
53
54
55
56
57
58
59
60
0 0.8999999999995836 0
0 0.7999999999999998 0
0 0.7000000000006934 0
0 0.6000000000013869 0
0 0.5000000000020587 0
0 0.4000000000016644 0
0 0.3000000000012483 0
0 0.2000000000008322 0
0 0.100000000000416 0
2 1 0 214
61
62
63
64
65
66
67
68
69
70
71
72
73
74
75
76
77
78
79
80
81
82
83
84
85
86
87
88
89
90
91
92
93
94
95
96
97
98
99
100
101
102
103
104
105
106
107
108
109
110
111
112
113
114
115
116
117
118
119
120
121
122
123
124
125
126
127
128
129
130
131
132
133
134
135
136
137
138
139
140
141
142
143
144
145
146
147
148
149
150
151
152
153
154
155
156
157
158
159
160
161
162
163
164
165
166
167
168
169
170
171
172
173
174
175
176
177
178
179
180
181
182
183
184
185
186
187
188
189
190
191
192
193
194
195
196
197
198
199
200
201
202
203
204
205
206
207
208
209
210
211
212
213
214
215
216
217
218
219
220
221
222
223
224
225
226
227
228
229
230
231
232
233
234
235
236
237
238
239
240
241
242
243
244
245
246
247
248
249
250
251
252
253
254
255
256
257
258
259
260
261
262
263
264
265
266
267
268
269
270
271
272
273
274
1.450642866638479 0.9154640981954274 0
1.152469636478225 0.9218042961029767 0
0.5493571333614374 0.0845359018048109 0
0.8482359739443547 0.07826250928771292 0
1.349999999997826 0.0866025403791509 0
0.6500000000035231 0.9133974596203553 0
0.08477828132214665 0.5468402906295525 0
1.915221718678032 0.4531597093706084 0
0.350000000002438 0.9133974596203971 0
1.649999999998483 0.08660254037914196 0
0.08660254037876887 0.3500000000013018 0
1.903396187224044 0.6595071686649282 0
0.8500000000038158 0.9133974596212944 0
1.149999999997617 0.08660254037862172 0
0.3442582315916958 0.09682240193709921 0
1.652469636475435 0.9148233049058289 0
0.08962961249639642 0.7586725654697496 0
1.910370387503922 0.241327434529642 0
1.846132486539954 0.9156303695584329 0
0.08436963044178999 0.153867513460167 0
0.1504237369288744 0.9153227954938754 0
1.849576263071417 0.08467720450589172 0
0.9500000000039311 0.9133974596216763 0
0.8975303635278019 0.8282207645274926 0
0.7995883939248142 0.8270325601232021 0
0.8470501564356789 0.7418954718430295 0
0.7494397583967205 0.7405158345069618 0
0.79941498580913 0.6539275965893531 0
0.8969412205664897 0.6618942397078342 0
0.6998091240380608 0.6537000407761773 0
0.7498706849786895 0.5670619581728411 0
0.6499466348403204 0.5670181084991865 0
0.6999695533077476 0.4804023361381083 0
0.599986031362633 0.4803928225281218 0
0.5499887777045747 0.5669937773045701 0
0.4999958015158957 0.4803871817269053 0
0.7999733730520463 0.4804001308082311 0
0.4499974298742249 0.566988781971509 0
0.3999988719031002 0.4803854090374281 0
0.6499925974500325 0.393786491217969 0
0.44999911224167 0.3937827299001587 0
0.4999977012667515 0.6535911656612691 0
0.399999788771306 0.6535899604393971 0
0.3518770766994593 0.3926984866143577 0
0.4003126981624386 0.3069991406060792 0
0.3000000000081867 0.3071796769690126 0
0.3073689354417362 0.474797874031712 0
0.449999581676318 0.7401926203841123 0
0.3499998950779422 0.7401924394411391 0
0.5000519684060545 0.3071496730016845 0
0.9971187574481706 0.8317276124540768 0
0.2999999473122568 0.6535898689051882 0
0.649874813742358 0.7402646551854153 0
0.4500000000085978 0.2205771365916538 0
0.2529006088289774 0.7385177115754449 0
0.2031944055855918 0.6533801510835966 0
0.550000000008441 0.2205771365923078 0
0.3999999127949561 0.8267949695909207 0
0.4999999157480822 0.8267949678860093 0
0.4499999714254457 0.9133974761193746 0
0.3004834027848942 0.8265158265145582 0
0.1849446422338344 0.8182381188933447 0
0.7499313989904348 0.9134370664344373 0
1.05246963647408 0.08517669509394049 0
1.102881242553367 0.1715415945917228 0
1.200480207090095 0.1729278330630924 0
1.150560241605252 0.2594841654923448 0
1.250173408113952 0.2597075039130239 0
1.200122274951026 0.3463395660364994 0
1.300049280508658 0.3463817093977749 0
1.250028592574259 0.4329961939603401 0
1.350012978844736 0.4330052085515703 0
1.300006928567272 0.5196112420589329 0
1.40000331789935 0.5196133266792883 0
1.450002716121613 0.4330111337378091 0
1.500001005667419 0.5196146616472976 0
1.550000620295693 0.4330123437637474 0
1.600000270991014 0.5196150858132002 0
1.150025144585329 0.4329981846574052 0
1.055512853646001 0.2500863595081398 0
1.350001707741694 0.6062167966823013 0
1.250001439382268 0.6062169516194216 0
1.550000212773408 0.6062176598031576 0
1.500000556067401 0.3464098404676631 0
1.600000051032985 0.3464101320496983 0
1.300000136533131 0.6928202441979048 0
1.648122667953908 0.6073016608103634 0
1.202469899126295 0.6913943260997304 0
1.599687146784637 0.6897066812380477 0
1.700229927066839 0.685388209279449 0
1.692630879150918 0.5252022330134724 0
1.5500001011814 0.2598075627181272 0
1.650000025367041 0.2598076064898047 0
1.499947893256693 0.6923013622555212 0
1.150411889749108 0.6059799779894556 0
1.700000012730911 0.3464101541637147 0
1.350037114768517 0.2597861929130579 0
1.551720578437422 0.7706503796299222 0
1.251392895029949 0.7786186750827391 0
1.35023217192407 0.7759945512044399 0
1.102949934621105 0.6878479704336833 0
1.05302994053745 0.5973851637321004 0
1.747099371253429 0.2614822999235073 0
1.796805584435847 0.3466198546772057 0
1.305210117443237 0.8522431588487233 0
0.999277409915226 0.6846660352190003 0
1.600000021089815 0.1732050685806765 0
1.500000020376788 0.1732050689923155 0
1.450226267095078 0.7732204104211499 0
1.550000006910093 0.08660253638870059 0
1.699516569617609 0.1734841894185796 0
1.815055350978546 0.1817618850252123 0
1.250080034513177 0.08655633242975425 0
0.08623038872254131 0.2506445855775937 0
0.1714066072601002 0.198388985539634 0
0.1626841342278524 0.09177841112379373 0
0.2598076211358959 0.1500000000008219 0
0.1900472764144701 0.3041876759100505 0
0.1714658503274891 0.4076527380406998 0
0.08600862546433552 0.4507488381127409 0
0.1642642452575272 0.5012868319838493 0
0.2476419636586868 0.9122457000870292 0
1.400068029424413 0.691128524568565 0
0.245451464004019 0.5550762644464213 0
1.749999999999514 0.9133974596215156 0
1.80182505089859 0.828592916183396 0
1.908252165510347 0.8373157976925588 0
1.851413351689265 0.7472598624022984 0
1.705655054179392 0.8334280632630242 0
0.6000074276479631 0.3071753886209088 0
0.6500012379482645 0.2238706895444684 0
0.7000002105114629 0.3077286000498745 0
0.7475306049387791 0.2226433945497754 0
0.7995884692465318 0.3076155404779447 0
0.8470502092244669 0.2256892091667895 0
0.9019094162247026 0.3132169017913911 0
0.6946493675315373 0.1479447262151899 0
0.9520716786252768 0.2279644415168388 0
1.912034624064723 0.5521111463384469 0
1.825076049385542 0.5910412274108225 0
1.834833279616906 0.4989721596662425 0
0.3504694062177738 0.5640713598052759 0
1.049931398990255 0.9156207145704094 0
1.104859238438044 0.8428830613403206 0
1.75235803061079 0.08775430322147093 0
0.8502452097572012 0.394863627584823 0
0.9537845552038657 0.4066036394061597 0
1.754419577358246 0.4449607537711195 0
0.9525872382113013 0.08027984198561999 0
0.5500054897707081 0.3937790478326246 0
1.103506388940055 0.3432960112321665 0
1.056158621072929 0.425238056322737 0
0.3437143418073611 0.2101414298261571 0
1.450003694460496 0.6058487219393552 0
1.649508568593295 0.4359351170958253 0
0.849366710736382 0.5684426635193858 0
0.9522388501029013 0.5839721717452799 0
0.4499999999989701 0.08660254037819121 0
1.200078999142486 0.5195696320927004 0
1.552988386994862 0.9186745925943042 0
1.300128460746807 0.1731309139093714 0
1.898962050518659 0.3471315672368664 0
1.400017107717988 0.3464002843674443 0
0.5999361752661874 0.6536266877148269 0
0.1010379480560128 0.6528684335858556 0
0.903404419618002 0.4908904006045789 0
0.6998057275103924 0.8269070825185494 0
0.7499615688875038 0.3941327877128251 0
1.104087068990486 0.5153718642263321 0
1.450009150018228 0.2598023383694595 0
0.5499680312840335 0.7402108360120928 0
1.400029124317668 0.1731882658239041 0
0.5999701095508325 0.8268121765024719 0
1.450004858599913 0.08659973526401184 0
0.5499949994554101 0.9134003466880352 0
0.08324455358107391 0.8508641968735575 0
1.916755445610945 0.1491358035926696 0
0.2612644760286497 0.3872786690841637 0
1.738735523972986 0.6127213309148966 0
0.2529951693252028 0.2339795536491352 0
0.6490010834827709 0.07550962743646841 0
1.350975497347096 0.9245216867410713 0
1.602138942680455 0.8406072932099247 0
1.751615268940312 0.7551140183787519 0
1.207656246606481 0.8520843863969522 0
1.156534640366148 0.7693712786391849 0
0.9417149040220369 0.7500847840291297 0
1.003783909254272 0.5032435493395313 0
1.003823918952138 0.3277342349629054 0
1.010360562805191 0.163480106041908 0
0.7979110259391342 0.1491611020045447 0
1.933012701891869 0.7499999999993416 0
0.2500000000006205 0.06698729810863624 0
1.501286173640211 0.8441460952963087 0
1.050000000004004 0.7598076211381918 0
0.9013694481249541 0.154139535000569 0
0.4999999999988243 0.1535898384813294 0
0.4064119951456078 0.1535741063242863 0
0.748299575148998 0.07514632749065264 0
1.252718582979982 0.9251089213482873 0
1.399999999994969 0.8462597977271242 0
1.650479267232513 0.7603926757910157 0
0.6000000000087818 0.1537402022734513 0
0.1663414434401626 0.7243353961215984 0
1.833658548938081 0.2756646082784868 0
0.162259526418332 0.5810417437701767 0
1.837740473581671 0.4189582562293508 0
1.799139004550896 0.6760491199207396 0
0.07320508075719191 0.9267949192428079 0
1.926794919242805 0.926794919242846 0
0.07320508075713185 0.07320508075729706 0
1.926794919242844 0.07320508075703669 0
0.2302801924388719 0.4621417920112723 0
1.76913906189692 0.5345795409553107 0
$EndNodes
$Elements
9 550 1 550
0 1 15 1
1 1 
0 2 15 1
2 2 
0 3 15 1
3 3 
0 4 15 1
4 4 
1 1 1 20
5 1 5 
6 5 6 
7 6 7 
8 7 8 
9 8 9 
10 9 10 
11 10 11 
12 11 12 
13 12 13 
14 13 14 
15 14 15 
16 15 16 
17 16 17 
18 17 18 
19 18 19 
20 19 20 
21 20 21 
22 21 22 
23 22 23 
24 23 2 
1 2 1 10
25 2 24 
26 24 25 
27 25 26 
28 26 27 
29 27 28 
30 28 29 
31 29 30 
32 30 31 
33 31 32 
34 32 3 
1 3 1 20
35 3 33 
36 33 34 
37 34 35 
38 35 36 
39 36 37 
40 37 38 
41 38 39 
42 39 40 
43 40 41 
44 41 42 
45 42 43 
46 43 44 
47 44 45 
48 45 46 
49 46 47 
50 47 48 
51 48 49 
52 49 50 
53 50 51 
54 51 4 
1 4 1 10
55 4 52 
56 52 53 
57 53 54 
58 54 55 
59 55 56 
60 56 57 
61 57 58 
62 58 59 
63 59 60 
64 60 1 
2 1 2 486
65 177 75 213 
66 213 75 258 
67 77 122 236 
68 78 172 237 
69 226 207 248 
70 196 198 249 
71 122 77 264 
72 172 78 265 
73 166 89 217 
74 162 166 217 
75 178 106 238 
76 207 212 248 
77 198 140 249 
78 5 6 176 
79 31 32 187 
80 106 178 240 
81 179 178 238 
82 5 176 271 
83 187 32 270 
84 122 81 236 
85 172 82 237 
86 225 116 264 
87 222 164 265 
88 72 188 268 
89 62 204 245 
90 245 204 246 
91 217 226 248 
92 207 196 249 
93 244 189 262 
94 209 250 256 
95 111 247 255 
96 243 220 254 
97 161 246 255 
98 195 251 256 
99 242 39 260 
100 241 11 259 
101 177 213 240 
102 200 72 268 
103 116 225 266 
104 164 222 267 
105 77 225 264 
106 78 222 265 
107 208 201 274 
108 184 181 273 
109 188 72 252 
110 75 177 253 
111 151 208 274 
112 107 184 273 
113 165 242 260 
114 197 241 259 
115 250 198 256 
116 247 166 255 
117 158 243 254 
118 246 204 255 
119 251 64 256 
120 150 244 262 
121 81 122 182 
122 69 118 120 
123 122 121 182 
124 48 69 120 
125 118 69 121 
126 82 172 205 
127 47 48 120 
128 121 69 182 
129 46 47 235 
130 70 167 170 
131 20 70 170 
132 172 171 205 
133 167 70 171 
134 67 180 181 
135 19 20 170 
136 18 19 234 
137 47 120 235 
138 171 70 205 
139 56 57 180 
140 115 109 121 
141 109 118 121 
142 67 56 180 
143 123 66 227 
144 45 66 123 
145 19 170 234 
146 227 66 233 
147 44 45 123 
148 185 76 189 
149 163 153 171 
150 115 121 122 
151 173 65 221 
152 153 167 171 
153 34 35 185 
154 146 141 183 
155 17 65 173 
156 42 43 83 
157 35 76 185 
158 169 160 183 
159 83 73 84 
160 16 17 173 
161 28 29 199 
162 221 65 232 
163 68 28 199 
164 71 58 174 
165 57 71 180 
166 43 73 83 
167 160 146 183 
168 71 174 178 
169 183 141 214 
170 73 44 123 
171 199 200 201 
172 50 81 182 
173 33 34 79 
174 41 42 203 
175 163 171 172 
176 174 175 178 
177 62 41 203 
178 97 93 228 
179 42 83 203 
180 43 44 73 
181 180 179 181 
182 206 207 226 
183 14 15 124 
184 68 199 201 
185 79 34 185 
186 62 203 204 
187 83 84 111 
188 124 74 125 
189 66 46 235 
190 15 74 124 
191 71 179 180 
192 57 58 71 
193 74 16 173 
194 29 72 199 
195 59 80 174 
196 100 190 192 
197 174 80 175 
198 71 178 179 
199 22 82 205 
200 65 18 234 
201 184 107 202 
202 50 51 81 
203 97 206 226 
204 175 176 177 
205 190 100 210 
206 69 49 182 
207 206 97 228 
208 175 80 176 
209 141 134 214 
210 13 14 209 
211 112 115 116 
212 98 103 202 
213 15 16 74 
214 199 72 200 
215 29 30 72 
216 154 183 214 
217 14 124 209 
218 143 154 214 
219 154 149 158 
220 99 98 202 
221 64 13 209 
222 208 151 215 
223 58 59 174 
224 59 60 80 
225 103 112 202 
226 148 146 159 
227 159 160 165 
228 154 158 169 
229 143 149 154 
230 159 146 160 
231 186 185 189 
232 48 49 69 
233 49 50 182 
234 142 141 146 
235 133 134 141 
236 143 147 149 
237 112 109 115 
238 211 139 212 
239 22 23 82 
240 107 99 202 
241 70 21 205 
242 112 116 184 
243 129 130 131 
244 103 109 112 
245 156 208 215 
246 93 100 228 
247 131 132 133 
248 129 139 211 
249 100 94 210 
250 133 141 142 
251 156 163 164 
252 94 96 210 
253 101 110 210 
254 110 190 210 
255 104 99 107 
256 88 87 90 
257 127 129 211 
258 20 21 70 
259 86 87 88 
260 21 22 205 
261 156 164 208 
262 133 132 134 
263 142 146 148 
264 88 90 91 
265 17 18 65 
266 131 130 132 
267 136 138 143 
268 101 105 110 
269 129 128 130 
270 112 184 202 
271 110 114 117 
272 110 105 114 
273 136 143 214 
274 140 127 211 
275 127 128 129 
276 45 46 66 
277 129 131 139 
278 134 136 214 
279 133 142 219 
280 96 101 210 
281 193 191 197 
282 125 127 140 
283 149 147 150 
284 143 138 147 
285 139 131 219 
286 212 139 229 
287 145 153 156 
288 156 153 163 
289 96 95 98 
290 190 117 191 
291 110 117 190 
292 101 104 105 
293 93 94 100 
294 125 74 126 
295 84 73 85 
296 154 169 183 
297 91 90 92 
298 203 111 204 
299 86 88 89 
300 83 111 203 
301 96 98 99 
302 84 85 86 
303 145 156 215 
304 142 155 219 
305 192 191 193 
306 100 192 228 
307 86 85 87 
308 125 126 127 
309 127 126 128 
310 151 138 215 
311 89 216 217 
312 91 93 97 
313 91 92 93 
314 93 92 94 
315 190 191 192 
316 134 135 136 
317 131 133 219 
318 98 102 103 
319 138 137 215 
320 130 128 157 
321 147 138 151 
322 79 185 186 
323 96 99 101 
324 136 135 137 
325 137 145 215 
326 136 137 138 
327 194 193 195 
328 134 132 135 
329 101 99 104 
330 192 193 194 
331 114 105 213 
332 105 104 106 
333 155 148 161 
334 90 87 113 
335 98 95 102 
336 105 106 213 
337 128 126 221 
338 206 196 207 
339 91 97 216 
340 219 155 229 
341 89 88 216 
342 27 28 68 
343 88 91 216 
344 137 144 145 
345 103 108 109 
346 12 13 64 
347 9 10 63 
348 94 95 96 
349 194 196 206 
350 162 161 166 
351 137 135 144 
352 130 157 223 
353 8 9 218 
354 94 92 95 
355 7 8 75 
356 145 152 153 
357 196 195 198 
358 37 38 61 
359 40 41 62 
360 194 195 196 
361 126 74 173 
362 157 128 221 
363 26 27 222 
364 142 148 155 
365 187 186 188 
366 90 113 224 
367 92 90 224 
368 25 26 78 
369 36 37 220 
370 155 162 229 
371 87 85 227 
372 126 173 221 
373 55 56 67 
374 192 194 228 
375 9 63 218 
376 155 161 162 
377 167 152 168 
378 145 144 152 
379 132 130 223 
380 135 132 223 
381 35 36 76 
382 27 68 222 
383 75 8 218 
384 153 152 167 
385 139 219 229 
386 217 216 226 
387 167 168 170 
388 144 135 223 
389 103 102 108 
390 194 206 228 
391 95 92 224 
392 54 55 225 
393 216 97 226 
394 37 61 220 
395 113 87 227 
396 78 26 222 
397 109 108 118 
398 102 95 224 
399 53 54 77 
400 224 113 231 
401 118 108 119 
402 118 119 120 
403 76 36 220 
404 85 73 123 
405 223 157 230 
406 102 224 231 
407 168 152 230 
408 79 186 187 
409 144 223 230 
410 55 67 225 
411 85 123 227 
412 152 144 230 
413 168 230 232 
414 119 108 231 
415 230 157 232 
416 77 54 225 
417 108 102 231 
418 232 65 234 
419 157 221 232 
420 231 113 233 
421 233 66 235 
422 113 227 233 
423 119 231 233 
424 168 232 234 
425 170 168 234 
426 119 233 235 
427 120 119 235 
428 89 166 247 
429 162 217 248 
430 212 207 249 
431 140 198 250 
432 52 53 236 
433 24 25 237 
434 104 107 238 
435 147 151 239 
436 53 77 236 
437 25 78 237 
438 178 175 240 
439 10 11 241 
440 38 39 242 
441 76 220 243 
442 186 189 244 
443 161 148 246 
444 86 89 247 
445 111 84 247 
446 211 212 249 
447 229 162 248 
448 125 140 250 
449 209 124 250 
450 195 193 251 
451 72 30 252 
452 7 75 253 
453 12 64 259 
454 40 62 260 
455 165 160 261 
456 158 149 262 
457 197 191 263 
458 115 122 264 
459 163 172 265 
460 225 67 266 
461 222 68 267 
462 213 106 240 
463 4 52 269 
464 60 1 271 
465 1 5 271 
466 2 24 272 
467 23 2 272 
468 176 80 271 
469 51 4 269 
470 3 33 270 
471 32 3 270 
472 79 187 270 
473 150 239 268 
474 106 104 238 
475 150 147 239 
476 176 6 253 
477 31 187 252 
478 181 184 266 
479 201 208 267 
480 242 165 261 
481 241 197 263 
482 243 158 262 
483 62 245 260 
484 64 251 259 
485 175 177 240 
486 63 10 241 
487 61 38 242 
488 189 76 243 
489 188 186 244 
490 159 165 245 
491 159 245 246 
492 148 159 246 
493 84 86 247 
494 212 229 248 
495 140 211 249 
496 124 125 250 
497 193 197 251 
498 184 116 266 
499 208 164 267 
500 244 150 268 
501 257 63 263 
502 254 61 261 
503 198 195 256 
504 166 161 255 
505 117 114 257 
506 257 114 258 
507 114 213 258 
508 169 158 254 
509 6 7 253 
510 187 188 252 
511 30 31 252 
512 177 176 253 
513 220 61 254 
514 204 111 255 
515 64 209 256 
516 218 63 257 
517 218 257 258 
518 75 218 258 
519 117 257 263 
520 169 254 261 
521 11 12 259 
522 39 40 260 
523 160 169 261 
524 149 150 262 
525 191 117 263 
526 116 115 264 
527 164 163 265 
528 67 181 266 
529 68 201 267 
530 24 237 272 
531 52 236 269 
532 81 51 269 
533 80 60 271 
534 82 23 272 
535 33 79 270 
536 201 200 274 
537 181 179 273 
538 238 107 273 
539 239 151 274 
540 239 200 268 
541 236 81 269 
542 237 82 272 
543 63 241 263 
544 61 242 261 
545 189 243 262 
546 245 165 260 
547 251 197 259 
548 188 244 268 
549 179 238 273 
550 200 239 274 
$EndElements
